# xmcd
#
# Track frame offsets:
#	150
#	13998
#	33122
#	79798
#
# Disc length: 1644 seconds
#
# Revision: 0
# Processed by: cddbd v1.5.2PL0 Copyright (c) Steve Scherf et al.
# Submitted via: dBpowerAMP V4.0
#
DISCID=24066a04
DTITLE=Afro-Dite - Aqua Playa [CDS]
DYEAR=2003
DGENRE=Pop
TTITLE0=Aqua Playa (Original Radio Version)
TTITLE1=Aqua Playa (SoundFactory Radio Mix)
TTITLE2=Aqua Playa (SoundFactory Club Anthem Mix)
TTITLE3=Aqua Playa (SoundFactory Late Night Arena Dub)
EXTD=
EXTT0=
EXTT1=
EXTT2=
EXTT3=
PLAYORDER=
